<?xml version="1.0" encoding="iso-8859-1"?>
<!-- Generator: Adobe Illustrator 19.0.0, SVG Export Plug-In . SVG Version: 6.00 Build 0)  -->
<svg xmlns="http://www.w3.org/2000/svg" xmlns:xlink="http://www.w3.org/1999/xlink" version="1.1" id="Layer_1" x="0px" y="0px" viewBox="0 0 512 512" style="enable-background:new 0 0 512 512;" xml:space="preserve" width="512px" height="512px">
<g>
	<g>
		<path d="M457.024,444.907H333.008v-52.872c0-5.523-4.478-10-10-10h-15.123v-98.548c22.144-2.947,39.267-21.522,39.267-43.939    v-75.262c0-38.051-24.753-70.579-59.411-83.147c8.406-8.618,13.6-20.384,13.6-33.345C301.34,21.44,279.9,0,253.546,0    s-47.795,21.44-47.795,47.794c0,13.657,5.767,25.986,14.983,34.704c-32.8,13.442-55.887,45.04-55.887,81.789v75.262    c0,22.858,17.8,41.729,40.576,44.102v98.385h-16.432c-5.522,0-10,4.477-10,10v27.105H54.976c-5.522,0-10,4.477-10,10V502    c0,5.523,4.478,10,10,10h402.048c5.522,0,10-4.477,10-10v-47.093C467.024,449.384,462.546,444.907,457.024,444.907z M178.993,492    H64.976v-52.859h114.017V492z M253.546,20c15.325,0,27.794,12.469,27.794,27.794s-12.469,27.794-27.794,27.794    c-15.326,0-27.795-12.469-27.795-27.794S238.22,20,253.546,20z M184.848,239.548v-75.262c0-37.88,31.919-68.698,71.152-68.698    c39.233,0,71.151,30.818,71.151,68.698v75.262c0,11.396-8.214,20.985-19.267,23.631v-96.275c0-5.523-4.478-10-10-10    c-5.522,0-10,4.477-10,10v215.131h-21.23V268.329c0-5.523-4.478-10-10-10c-5.522,0-10,4.477-10,10v113.706h-21.23V166.904    c0-5.523-4.477-10-10-10c-5.522,0-10,4.477-10,10v96.552C193.716,261.279,184.848,251.389,184.848,239.548z M313.009,454.908V492    H198.993v-62.859v-27.105h114.016V454.908z M447.024,492H333.008v-27.093h114.016V492z" fill="#1ABC9C"/>
	</g>
</g>
<g>
</g>
<g>
</g>
<g>
</g>
<g>
</g>
<g>
</g>
<g>
</g>
<g>
</g>
<g>
</g>
<g>
</g>
<g>
</g>
<g>
</g>
<g>
</g>
<g>
</g>
<g>
</g>
<g>
</g>
</svg>
